<svg id="Camada_1" xmlns="http://www.w3.org/2000/svg" version="1.1" viewBox="0 0 355.05 116.18">
  <!-- Generator: Adobe Illustrator 29.0.0, SVG Export Plug-In . SVG Version: 2.1.0 Build 186)  -->
  <defs>
    <style>
      .st0 {
        fill: #7e6eb0;
      }

      .st1 {
        fill: #4e4d4d;
      }

      .st2 {
        fill: #c6b6da;
      }
    </style>
  </defs>
  <g>
    <path class="st1" d="M161.61,55.15c0,14.87-11.06,23.79-24.16,23.79-2.97,0-5.39-.28-7.53-.84v16.35c-2.32.37-4.65.56-6.97.56s-4.55-.19-6.88-.56v-55.65c4.74-3.72,11.89-6.78,21.09-6.78,13.94,0,24.44,7.53,24.44,23.13ZM147.67,55.52c0-7.15-4.65-11.24-11.52-11.24-2.14,0-4.18.37-6.23,1.21v20.25c2.04.93,4,1.12,6.41,1.12,6.78.09,11.33-4.09,11.33-11.33Z"/>
    <path class="st1" d="M210.75,16.31v58.25c-4.65,2.32-12.26,4.37-19.88,4.37-16.07,0-25.74-8.36-25.74-23.32s10.96-23.6,24.62-23.6c2.88,0,5.11.28,7.15.84v-16.54c2.32-.37,4.65-.56,6.88-.56s4.65.19,6.97.56ZM196.91,66.3v-21.18c-2.04-1.02-4.18-1.3-6.32-1.3-6.6,0-11.52,4.46-11.52,11.61s4.65,11.71,11.33,11.71c2.23,0,4.37-.28,6.5-.84Z"/>
    <path class="st1" d="M262.22,34.06c-4,17.1-8.64,30.2-16.63,43.3-2.23.46-4.55.65-6.78.65s-4.55-.19-6.88-.65c-8.83-13.66-13.1-26.57-16.82-43.3,1.86-.46,6.13-1.02,9.94-1.02,1.67,0,3.62.09,5.11.28,2.51,12.73,6.04,24.62,8.27,30.29.19.65.37,1.3.56,2.14.19-.84.37-1.49.56-2.14,2.51-6.22,5.67-17.56,8.18-30.29,1.58-.19,3.53-.28,5.39-.28,3.34,0,6.78.46,9.1,1.02Z"/>
    <path class="st1" d="M304.77,58.77h-29.36c.84,6.22,4.27,9.01,10.87,9.01,5.57,0,9.57-2.23,13.01-4.46,2.88,2.23,4.65,5.95,5.02,9.38-3.9,2.97-9.94,6.22-19.51,6.22-13.66,0-23.51-8.45-23.51-23.23,0-13.94,9.85-23.69,23.04-23.69,12.45,0,20.91,7.9,20.91,20.25,0,2.23-.09,4.27-.46,6.5ZM292.13,50.97c0-4.27-2.04-8.18-7.71-8.46-5.3,0-8.36,3.44-9.01,8.46h16.72Z"/>
    <path class="st1" d="M347.97,71.69c0,2.51-.46,4.37-.93,5.67h-38.28c-.37-1.02-.56-2.32-.56-3.25,0-3.62,1.39-5.76,2.69-7.34l16.82-19.14,2.51-2.79h-20.9c-.37-1.21-.74-3.62-.74-5.76,0-2.32.37-4.18.74-5.39h36.79c.28.84.46,2.14.46,3.16,0,3.44-1.02,6.13-2.6,8.08l-15.52,18.86-2.23,2.42h20.81c.46,1.21.93,3.16.93,5.48Z"/>
  </g>
  <g>
    <path class="st0" d="M97.52,39.89c0-14.6-11.87-26.47-26.47-26.47h-37.56l-15.46,15.46h53.02c6.07,0,11.01,4.94,11.01,11.01,0,2.94-1.14,5.72-3.23,7.79l-33.48,33.48h21.86l22.55-22.54c5-5,7.75-11.65,7.75-18.72Z"/>
    <path class="st2" d="M22.54,76.28c0-2.94,1.15-5.7,3.23-7.78l32.88-32.89h-21.87l-21.94,21.94c-5.01,5-7.76,11.65-7.76,18.72,0,14.6,11.88,26.48,26.48,26.48h37.56l15.46-15.46h-53.02c-6.07,0-11.01-4.94-11.01-11.01Z"/>
  </g>
</svg>